<svg width="19" height="15" viewBox="0 0 19 15" fill="none" xmlns="http://www.w3.org/2000/svg">
<path d="M15.9519 2.00143C14.7848 1.46579 13.5532 1.08385 12.2879 0.865179C12.2764 0.862984 12.2644 0.864489 12.2538 0.869478C12.2433 0.874466 12.2345 0.882683 12.2288 0.892953C12.0608 1.19749 11.9083 1.51031 11.7718 1.83022C10.4079 1.62309 9.02061 1.62309 7.65675 1.83022C7.51965 1.50951 7.36496 1.19662 7.19339 0.892953C7.18751 0.882898 7.17871 0.874862 7.16817 0.869904C7.15763 0.864946 7.14583 0.863299 7.13433 0.865179C5.86936 1.0835 4.63817 1.46546 3.47175 2.00143C3.46171 2.00566 3.45323 2.0129 3.44749 2.02217C1.11417 5.50862 0.475032 8.90929 0.788625 12.2671C0.789521 12.2753 0.792068 12.2833 0.796115 12.2906C0.800162 12.2978 0.805625 12.3042 0.812181 12.3092C2.17091 13.3158 3.69078 14.0841 5.3069 14.5814C5.31831 14.5848 5.33048 14.5847 5.3418 14.5809C5.35311 14.5772 5.36301 14.5702 5.37019 14.5606C5.7172 14.0882 6.02468 13.588 6.28952 13.0651C6.29313 13.0579 6.29519 13.0501 6.29555 13.0421C6.29591 13.0341 6.29457 13.026 6.29162 13.0186C6.28866 13.0111 6.28416 13.0043 6.27841 12.9987C6.27266 12.9931 6.26578 12.9888 6.25823 12.986C5.77328 12.8008 5.30377 12.5774 4.8541 12.318C4.84593 12.3132 4.83907 12.3065 4.83414 12.2984C4.8292 12.2903 4.82632 12.2812 4.82576 12.2718C4.82521 12.2623 4.82699 12.2529 4.83095 12.2442C4.83491 12.2357 4.84093 12.2281 4.84847 12.2224C4.94269 12.1521 5.03725 12.0783 5.12725 12.0037C5.13525 11.9972 5.14491 11.9929 5.15516 11.9916C5.16541 11.9902 5.17584 11.9918 5.18527 11.996C8.131 13.341 11.3204 13.341 14.2313 11.996C14.2408 11.9914 14.2514 11.9897 14.2619 11.991C14.2723 11.9922 14.2822 11.9964 14.2904 12.003C14.3804 12.0772 14.4749 12.1517 14.5717 12.2224C14.5792 12.2281 14.5853 12.2355 14.5893 12.2441C14.5933 12.2527 14.5952 12.262 14.5947 12.2715C14.5942 12.2809 14.5914 12.2902 14.5865 12.2983C14.5817 12.3064 14.5748 12.3132 14.5667 12.318C14.1176 12.5799 13.6472 12.8034 13.1605 12.986C13.1529 12.9889 13.146 12.9933 13.1402 12.999C13.1345 13.0047 13.13 13.0116 13.1272 13.0192C13.1242 13.0268 13.123 13.0349 13.1235 13.043C13.1239 13.0511 13.1261 13.059 13.1299 13.0662C13.3991 13.5862 13.7061 14.0859 14.0485 14.561C14.0554 14.5708 14.0653 14.5781 14.0767 14.582C14.088 14.5858 14.1003 14.586 14.1118 14.5824C15.7301 14.0866 17.252 13.3182 18.6118 12.3103C18.6184 12.3054 18.624 12.2993 18.6281 12.2921C18.6321 12.285 18.6346 12.277 18.6353 12.2688C19.0108 8.38615 18.0068 5.01327 15.974 2.02357C15.9695 2.01382 15.9616 2.00597 15.9519 2.00143ZM6.72898 10.2227C5.84198 10.2227 5.11179 9.4085 5.11179 8.40865C5.11179 7.40881 5.82827 6.59459 6.72898 6.59459C7.63706 6.59459 8.36093 7.41584 8.34617 8.40865C8.34687 9.4085 7.63003 10.2227 6.72898 10.2227ZM12.7101 10.2227C11.8232 10.2227 11.0929 9.4085 11.0929 8.40865C11.0929 7.40881 11.8094 6.59459 12.7101 6.59459C13.6182 6.59459 14.3421 7.41584 14.3273 8.40865C14.3277 9.4085 13.6182 10.2227 12.7101 10.2227Z" fill="black"/>
</svg>
