<?xml version="1.0" encoding="UTF-8"?>
<svg xmlns="http://www.w3.org/2000/svg" xmlns:xlink="http://www.w3.org/1999/xlink" viewBox="0 0 90 90" width="90px" height="90px">
<g id="surface163067">
<path style=" stroke:none;fill-rule:nonzero;fill:rgb(0%,0%,0%);fill-opacity:1;" d="M 45 9 C 25.117188 9 9 25.117188 9 45 C 9 63.046875 22.296875 77.953125 39.617188 80.554688 L 39.617188 54.539062 L 30.710938 54.539062 L 30.710938 45.078125 L 39.617188 45.078125 L 39.617188 38.78125 C 39.617188 28.355469 44.695312 23.78125 53.359375 23.78125 C 57.511719 23.78125 59.707031 24.089844 60.742188 24.226562 L 60.742188 32.488281 L 54.835938 32.488281 C 51.15625 32.488281 49.871094 35.976562 49.871094 39.90625 L 49.871094 45.078125 L 60.652344 45.078125 L 59.191406 54.539062 L 49.871094 54.539062 L 49.871094 80.632812 C 67.441406 78.25 81 63.226562 81 45 C 81 25.117188 64.882812 9 45 9 Z M 45 9 "/>
</g>
</svg>
