<svg width="19" height="17" viewBox="0 0 19 17" fill="none" xmlns="http://www.w3.org/2000/svg">
<g clip-path="url(#clip0_82_9)">
<path d="M1.77752 9.41113L1.83728 9.31725L5.43921 3.68248C5.49183 3.59995 5.61561 3.60851 5.65543 3.69811C6.25718 5.04672 6.77641 6.72392 6.53315 7.76807C6.4293 8.19765 6.14481 8.77954 5.82472 9.31725C5.78346 9.39548 5.73795 9.47233 5.68958 9.54627C5.66682 9.5804 5.62841 9.60034 5.58715 9.60034H1.88278C1.78321 9.60034 1.72491 9.49227 1.77752 9.41113Z" fill="black"/>
<path d="M17.8326 10.4582V11.3501C17.8326 11.4013 17.8013 11.4468 17.7558 11.4667C17.4769 11.5863 16.5224 12.0244 16.1255 12.5763C15.1126 13.9861 14.3387 16.0019 12.6089 16.0019H5.39224C2.83446 16.0019 0.76178 13.9221 0.76178 11.3558V11.2733C0.76178 11.205 0.817257 11.1495 0.885564 11.1495H4.90855C4.98821 11.1495 5.04655 11.2235 5.03944 11.3017C5.01098 11.5635 5.05935 11.8309 5.1831 12.0742C5.42212 12.5592 5.91716 12.8623 6.45206 12.8623H8.44361V11.3074H6.4748C6.37381 11.3074 6.31406 11.1908 6.3724 11.1082C6.39372 11.0756 6.4179 11.0414 6.44351 11.003C6.62987 10.7384 6.89587 10.3272 7.16049 9.85924C7.34114 9.54348 7.51613 9.20625 7.65694 8.86771C7.68539 8.80658 7.70817 8.744 7.73095 8.6828C7.76937 8.57466 7.80918 8.47365 7.83763 8.37265C7.86609 8.28735 7.88879 8.1977 7.91157 8.11372C7.97845 7.82641 8.0069 7.52197 8.0069 7.20616C8.0069 7.0824 8.00123 6.95295 7.98987 6.82917C7.98413 6.69403 7.96709 6.55889 7.94999 6.42375C7.93864 6.30424 7.91732 6.18619 7.89454 6.06243C7.86609 5.88175 7.82621 5.70252 7.78073 5.52185L7.76508 5.45357C7.73095 5.32981 7.70249 5.21172 7.66262 5.08797C7.55026 4.6996 7.42079 4.3212 7.28424 3.96699C7.23446 3.82615 7.17754 3.69101 7.12064 3.55587C7.0367 3.35243 6.95135 3.16751 6.87314 2.99252C6.83329 2.91286 6.79914 2.8403 6.76501 2.76634C6.72661 2.6824 6.68677 2.59849 6.64695 2.5188C6.61849 2.45763 6.58575 2.40074 6.56301 2.34384L6.31975 1.89431C6.2856 1.83313 6.34252 1.76058 6.40935 1.77907L7.93151 2.19163H7.9358C7.93864 2.19163 7.94003 2.19304 7.94148 2.19304L8.14204 2.24852L8.36254 2.3111L8.44361 2.33387V1.42914C8.44361 0.992399 8.79357 0.638184 9.22606 0.638184C9.44226 0.638184 9.6386 0.726368 9.77942 0.87006C9.92023 1.01375 10.0084 1.21006 10.0084 1.42914V2.77203L10.1706 2.81753C10.1834 2.82181 10.1963 2.8275 10.2076 2.83603C10.2474 2.86591 10.3043 2.91003 10.3769 2.96406C10.4338 3.0096 10.495 3.06508 10.5689 3.12197C10.7155 3.24006 10.8904 3.39227 11.0825 3.56723C11.1337 3.61135 11.1835 3.65686 11.229 3.7024C11.4765 3.93283 11.7539 4.20314 12.0185 4.50188C12.0925 4.58578 12.165 4.67114 12.239 4.76077C12.313 4.85181 12.3913 4.94144 12.4595 5.03108C12.5491 5.15056 12.6458 5.27431 12.7298 5.40378C12.7696 5.46495 12.8152 5.52754 12.8536 5.5887C12.9617 5.75231 13.057 5.9216 13.148 6.09086C13.1865 6.16911 13.2263 6.25446 13.2604 6.3384C13.3614 6.56458 13.4411 6.79504 13.4923 7.0255C13.508 7.07529 13.5193 7.12935 13.525 7.17772V7.18908C13.5421 7.25739 13.5478 7.32994 13.5535 7.40391C13.5762 7.64005 13.5649 7.87619 13.5137 8.11372C13.4923 8.2148 13.4639 8.31006 13.4297 8.41107C13.3955 8.50778 13.3614 8.60879 13.3173 8.70412C13.232 8.90184 13.1309 9.09957 13.0115 9.28455C12.9731 9.35281 12.9275 9.42537 12.882 9.49363C12.8322 9.56618 12.7811 9.63451 12.7355 9.70132C12.6729 9.78668 12.606 9.87634 12.5378 9.95595C12.4766 10.0399 12.414 10.1238 12.3457 10.1978C12.2504 10.3102 12.1594 10.4169 12.064 10.5194C12.0072 10.5862 11.946 10.6545 11.8834 10.7156C11.8222 10.7839 11.7596 10.8451 11.7027 10.902C11.6074 10.9973 11.5278 11.0713 11.4609 11.1325L11.3044 11.2761C11.2817 11.2961 11.2517 11.3074 11.2205 11.3074H10.0084V12.8623H11.5334C11.8748 12.8623 12.1992 12.7414 12.4609 12.5194C12.5506 12.4412 12.9418 12.1026 13.4041 11.5919C13.4198 11.5748 13.4397 11.562 13.4624 11.5564L17.6746 10.3387C17.7529 10.3159 17.8326 10.3756 17.8326 10.4582Z" fill="black"/>
</g>
<defs>
<clipPath id="clip0_82_9">
<rect width="18" height="15.9231" fill="white" transform="translate(0.484863 0.638184)"/>
</clipPath>
</defs>
</svg>
