<svg width="17" height="15" viewBox="0 0 17 15" fill="none" xmlns="http://www.w3.org/2000/svg">
<path d="M16.9454 2.14593C16.3283 2.41957 15.6645 2.60465 14.9684 2.68729C15.6791 2.26144 16.2246 1.58763 16.4821 0.783418C15.817 1.17795 15.08 1.46417 14.2964 1.61843C13.6685 0.949754 12.7739 0.53186 11.7834 0.53186C9.88279 0.53186 8.34141 2.07329 8.34141 3.97383C8.34141 4.24362 8.37194 4.50621 8.43098 4.75828C5.5704 4.61479 3.03402 3.24457 1.33627 1.16152C1.04005 1.66977 0.870114 2.26144 0.870114 2.89213C0.870114 4.08601 1.47822 5.13998 2.40128 5.75706C1.83733 5.73936 1.30623 5.58458 0.842394 5.32609C0.842135 5.34072 0.842135 5.35535 0.842135 5.36972C0.842135 7.03745 2.02908 8.42844 3.60336 8.74445C3.31485 8.8235 3.01016 8.86533 2.69673 8.86533C2.47444 8.86533 2.25907 8.84402 2.0491 8.80399C2.48702 10.1711 3.7579 11.1663 5.26442 11.1943C4.0862 12.1176 2.60227 12.6677 0.989224 12.6677C0.711995 12.6677 0.437336 12.6515 0.168579 12.6195C1.69101 13.5965 3.50069 14.166 5.44435 14.166C11.7754 14.166 15.2376 8.92128 15.2376 4.37248C15.2376 4.22334 15.2343 4.07471 15.2276 3.92737C15.9007 3.44223 16.4841 2.83618 16.9454 2.14593Z" fill="black"/>
</svg>
